<?xml version="1.0" ?><svg style="enable-background:new 0 0 48 48;" version="1.1" viewBox="0 0 48 48" xml:space="preserve" xmlns="http://www.w3.org/2000/svg" xmlns:xlink="http://www.w3.org/1999/xlink"><g id="Icons"><g id="Icons_3_"><path d="M23.4933,37.475l0.1317-8.58l-3.56-0.02l0.1-4.15h3.5v-3c0-0.4205,0.0513-0.8499,0.1231-1.2637    c0.0642-0.3701,0.156-0.736,0.2839-1.0893c0.1153-0.3184,0.2602-0.6265,0.4389-0.9143c0.1674-0.2696,0.3643-0.5208,0.5884-0.7455    c0.2209-0.2215,0.4676-0.4167,0.7326-0.5829c0.2744-0.1722,0.5677-0.3133,0.8711-0.4266c0.4991-0.1864,1.0282-0.3056,1.558-0.3606    c0.5479-0.057,1.1013-0.0278,1.6509-0.0161c0.2271,0.0048,0.4542,0.0097,0.6813,0.0126c0.422,0.0054,0.844,0.0104,1.2661,0.015    c0.0162,0.0002,0.0324,0.0004,0.0487,0.0006l-0.103,3.8408c0,0-0.49-0.02-2.21,0c-1.69,0.02-1.71,1.28-1.71,1.34l-0.02,3.19    l3.94,0.07l-0.57,4.08h-3.35l-0.0226,8.6h7.0926c1.39,0,2.52-1.13,2.52-2.52v-21.91c0-1.39-1.13-2.52-2.52-2.52h-21.91    c-1.39,0-2.52,1.13-2.52,2.52v21.91c0,1.39,1.13,2.52,2.52,2.52H23.4933" style="fill:#3B5998;"/></g></g></svg>